<svg width="23" height="20" viewBox="0 0 23 20" fill="none" xmlns="http://www.w3.org/2000/svg">
<path d="M1.156 19.28C0.801333 19.28 0.558667 19.1773 0.428 18.972C0.297333 18.7667 0.232 18.5427 0.232 18.3C0.232 17.1427 0.344 15.8173 0.568 14.324C0.810667 12.8307 1.1 11.3467 1.436 9.872C1.73467 8.62133 2.06133 7.45467 2.416 6.372C2.78933 5.28933 3.116 4.40267 3.396 3.712C3.80667 2.74133 4.27333 2.004 4.796 1.5C5.33733 0.977332 5.96267 0.715998 6.672 0.715998C7.19467 0.715998 7.66133 0.893332 8.072 1.248C8.48267 1.584 8.72533 2.2 8.8 3.096C8.912 4.17867 9.04267 5.27067 9.192 6.372C9.34133 7.47333 9.50933 8.48133 9.696 9.396C9.88267 10.292 10.0787 10.9827 10.284 11.468C10.452 11.8973 10.6947 12.112 11.012 12.112C11.3667 12.112 11.6747 11.888 11.936 11.44C12.1787 11.0293 12.44 10.4693 12.72 9.76C13 9.05067 13.2707 8.304 13.532 7.52C13.812 6.71733 14.0547 5.98933 14.26 5.336C14.5027 4.62667 14.7733 3.91733 15.072 3.208C15.3893 2.48 15.7907 1.88267 16.276 1.416C16.7613 0.930666 17.368 0.687999 18.096 0.687999C18.768 0.687999 19.244 0.921332 19.524 1.388C19.8227 1.836 19.972 2.55467 19.972 3.544C19.972 4.30933 19.944 5.112 19.888 5.952C19.8693 6.43733 19.8413 6.94133 19.804 7.464C19.7853 7.968 19.776 8.49067 19.776 9.032C19.776 9.872 19.8133 10.7587 19.888 11.692C19.9813 12.6253 20.1493 13.5027 20.392 14.324C20.6533 15.1453 21.036 15.836 21.54 16.396C21.6893 16.5267 21.82 16.676 21.932 16.844C22.0627 17.012 22.128 17.1987 22.128 17.404C22.128 17.8707 21.876 18.3 21.372 18.692C20.8867 19.0653 20.3267 19.252 19.692 19.252C19.1133 19.252 18.684 19.0653 18.404 18.692C18.124 18.3187 17.9 17.8147 17.732 17.18C17.5453 16.396 17.4147 15.556 17.34 14.66C17.2653 13.764 17.228 12.896 17.228 12.056C17.228 10.712 17.2747 9.48 17.368 8.36C17.48 7.22133 17.536 6.38133 17.536 5.84C17.536 5.54133 17.508 5.32667 17.452 5.196C17.396 5.04667 17.256 4.972 17.032 4.972C16.7707 4.972 16.5467 5.09333 16.36 5.336C16.192 5.56 16.052 5.87733 15.94 6.288C15.6973 7.072 15.4267 7.912 15.128 8.808C14.8293 9.704 14.512 10.5813 14.176 11.44C13.8587 12.2987 13.5133 13.064 13.14 13.736C12.7107 14.52 12.244 15.052 11.74 15.332C11.2547 15.5933 10.76 15.724 10.256 15.724C9.472 15.724 8.87467 15.4813 8.464 14.996C8.072 14.492 7.78267 13.9413 7.596 13.344C7.35333 12.5413 7.12933 11.496 6.924 10.208C6.71867 8.90133 6.56933 7.436 6.476 5.812C6.43867 5.12133 6.21467 4.776 5.804 4.776C5.356 4.776 5.00133 5.112 4.74 5.784C4.516 6.456 4.30133 7.24933 4.096 8.164C3.89067 9.06 3.72267 10.0027 3.592 10.992C3.48 11.9627 3.424 12.924 3.424 13.876C3.424 14.6787 3.452 15.3787 3.508 15.976C3.58267 16.5733 3.62 17.1333 3.62 17.656C3.62 18.0293 3.47067 18.3373 3.172 18.58C2.892 18.8227 2.556 19 2.164 19.112C1.772 19.224 1.436 19.28 1.156 19.28Z" fill="#F0BB52"/>
</svg>
